<svg width="15" height="15" viewBox="0 0 15 15" fill="none" xmlns="http://www.w3.org/2000/svg">
<rect width="15" height="15" rx="7.5" fill="#A93232"/>
<path d="M7.50002 2.34375C7.24631 2.34375 7.01428 2.55937 7.03127 2.8125L7.26565 9.14062C7.26565 9.20279 7.29034 9.2624 7.3343 9.30635C7.37825 9.35031 7.43786 9.375 7.50002 9.375C7.56218 9.375 7.6218 9.35031 7.66575 9.30635C7.70971 9.2624 7.7344 9.20279 7.7344 9.14062L7.96877 2.8125C7.98577 2.55937 7.75374 2.34375 7.50002 2.34375Z" stroke="white" stroke-width="0.9375" stroke-linecap="round" stroke-linejoin="round"/>
<path d="M7.5 12.6562C7.75888 12.6562 7.96875 12.4464 7.96875 12.1875C7.96875 11.9286 7.75888 11.7188 7.5 11.7188C7.24112 11.7188 7.03125 11.9286 7.03125 12.1875C7.03125 12.4464 7.24112 12.6562 7.5 12.6562Z" stroke="white" stroke-width="0.9375" stroke-linecap="round" stroke-linejoin="round"/>
</svg>
